<svg xmlns="http://www.w3.org/2000/svg" xmlns:xlink="http://www.w3.org/1999/xlink" version="1.1" x="0px" y="0px" viewBox="0 0 24 24" style="enable-background:new 0 0 24 24;" xml:space="preserve"><g><g><path d="M0.766,5.928C1.002,6.069,1.309,5.996,1.455,5.76C1.89,5.044,4.029,3,8.026,3c3.844,0,6.579,1.947,7.072,2.76    C15.194,5.914,15.358,6,15.526,6c0.089,0,0.179-0.023,0.26-0.072c0.235-0.144,0.311-0.451,0.168-0.688    C15.268,4.11,12.239,2,8.026,2c-4.479,0-6.88,2.339-7.428,3.24C0.456,5.477,0.531,5.784,0.766,5.928z M3.24,14.021    c-0.405-1.412-0.237-2.897,0.474-4.183s1.881-2.219,3.293-2.625c2.877-0.816,5.914,0.837,6.781,3.688    c0.012,0.039,0.028,0.076,0.05,0.111c0.062,0.104,0.116,0.194,1.894,1.664c0.212,0.176,0.526,0.146,0.704-0.067    c0.176-0.213,0.146-0.527-0.067-0.704c-1.217-1.006-1.574-1.324-1.653-1.392c-1.063-3.312-4.622-5.222-7.982-4.262    c-1.671,0.48-3.053,1.582-3.894,3.102c-0.84,1.52-1.039,3.274-0.56,4.943c0.82,2.851-0.939,3.642-1.499,3.816    c-0.264,0.083-0.41,0.363-0.328,0.627c0.067,0.214,0.265,0.351,0.478,0.351c0.049,0,0.1-0.007,0.149-0.022    C2.609,18.59,4.091,16.981,3.24,14.021z M0.526,13c0.276,0,0.5-0.224,0.5-0.5c0-4.136,3.364-7.5,7.5-7.5    c4.057,0,5.478,2.294,6.62,4.138c0.672,1.085,1.252,2.022,2.226,2.338c0.269,0.086,0.545-0.06,0.63-0.321    c0.085-0.263-0.059-0.545-0.321-0.63c-0.625-0.203-1.116-0.995-1.685-1.913c-1.205-1.946-2.855-4.611-7.47-4.611    c-4.687,0-8.5,3.813-8.5,8.5C0.026,12.776,0.25,13,0.526,13z M17.049,8.652C17.117,8.864,17.315,9,17.526,9    c0.051,0,0.102-0.008,0.152-0.023c0.263-0.085,0.408-0.366,0.324-0.629c-0.266-0.83-1.019-2.058-1.051-2.109    c-0.146-0.236-0.455-0.31-0.688-0.164c-0.235,0.145-0.309,0.452-0.164,0.688C16.107,6.773,16.823,7.938,17.049,8.652z     M3.732,1.956C3.959,1.853,4.154,1.755,4.336,1.66C5.083,1.277,5.623,1,8.026,1c2.703,0,3.698,0.369,4.752,0.761    c0.191,0.071,0.384,0.143,0.586,0.212C13.417,1.992,13.471,2,13.526,2c0.208,0,0.401-0.13,0.473-0.338    c0.09-0.261-0.049-0.545-0.311-0.635c-0.194-0.067-0.378-0.136-0.563-0.204C12.034,0.419,10.907,0,8.024,0    C5.379,0,4.717,0.34,3.878,0.771C3.709,0.858,3.53,0.95,3.319,1.044C3.068,1.157,2.956,1.453,3.068,1.705    C3.182,1.957,3.479,2.069,3.732,1.956z M1.026,16.5c0.075,0,0.151-0.017,0.224-0.053c0.247-0.124,0.347-0.424,0.224-0.671    c-0.181-0.36-0.447-1.016-0.447-1.276c0-0.276-0.224-0.5-0.5-0.5s-0.5,0.224-0.5,0.5c0,0.588,0.461,1.539,0.553,1.724    C0.667,16.398,0.844,16.5,1.026,16.5z M5.171,13.498c-0.434-1.971,0.593-3.846,2.388-4.361c1.854-0.529,3.799,0.542,4.331,2.396    c0.166,0.575,0.604,1.25,2.198,2.674c0.206,0.183,0.522,0.166,0.706-0.04c0.184-0.206,0.166-0.522-0.04-0.706    c-1.513-1.351-1.812-1.888-1.903-2.204c-0.686-2.383-3.185-3.764-5.567-3.081c-2.31,0.663-3.638,3.043-3.089,5.537    c1.01,4.598,0.256,5.662-1.817,6.31c-0.264,0.083-0.41,0.363-0.328,0.627c0.067,0.214,0.265,0.351,0.478,0.351    c0.049,0,0.1-0.007,0.149-0.022C5.57,20.072,6.201,18.186,5.171,13.498z M9.007,12.361c-0.077-0.266-0.35-0.42-0.619-0.342    c-0.265,0.076-0.418,0.354-0.342,0.619c0.788,2.74,3.781,5.012,5.603,6.395l0.572-0.822C12.531,16.929,9.703,14.783,9.007,12.361z     M21.909,20.854l-1.501-0.374l-0.063-0.252c0.39-0.43,0.666-0.979,0.781-1.549c0.267-0.138,0.461-0.4,0.5-0.716l0.108-0.868    c0.033-0.264-0.048-0.53-0.223-0.73c-0.054-0.062-0.115-0.115-0.183-0.16l0.026-0.531l0.091-0.092    c0.258-0.273,0.606-0.859,0.055-1.702c-0.262-0.4-0.801-0.879-1.884-0.879c-0.318,0-1.037,0-1.735,0.438    c-2.058,0.071-2.3,1.181-2.3,2.018c0,0.165,0.029,0.475,0.058,0.733c-0.074,0.047-0.143,0.104-0.201,0.172    c-0.178,0.201-0.26,0.469-0.226,0.732l0.108,0.87c0.041,0.325,0.248,0.596,0.553,0.729c0.112,0.546,0.374,1.073,0.739,1.493    l-0.073,0.294l-1.501,0.374c-1.214,0.304-2.064,1.392-2.064,2.646c0,0.276,0.224,0.5,0.5,0.5h10c0.276,0,0.5-0.225,0.5-0.501    C23.974,22.246,23.123,21.158,21.909,20.854z M13.106,20.051c-2.559-2.071-5.274-4.539-6.021-7.137    c-0.111-0.385-0.065-0.79,0.129-1.141c0.194-0.351,0.513-0.604,0.897-0.715c0.386-0.109,0.792-0.064,1.142,0.129    c0.351,0.193,0.604,0.513,0.715,0.898c0.33,1.146,1.498,2.589,3.569,4.411c0.207,0.184,0.522,0.162,0.705-0.045    c0.183-0.207,0.163-0.523-0.045-0.705c-2.362-2.079-3.082-3.289-3.269-3.938c-0.184-0.643-0.607-1.174-1.191-1.497    c-0.584-0.322-1.257-0.397-1.901-0.215c-0.643,0.185-1.174,0.607-1.497,1.192c-0.323,0.584-0.399,1.259-0.215,1.9    c0.823,2.864,3.673,5.468,6.353,7.638c0.093,0.075,0.204,0.111,0.314,0.111c0.146,0,0.29-0.063,0.389-0.186    C13.354,20.539,13.32,20.225,13.106,20.051z M11.521,21.694C11.024,21.02,10.273,20,9.026,20c-1.696,0-1.963,2.89-1.999,3.469    c-0.018,0.275,0.192,0.513,0.468,0.53C7.505,24,7.516,24,7.526,24c0.263,0,0.482-0.204,0.499-0.469    C8.089,22.497,8.483,21,9.026,21c0.741,0,1.268,0.714,1.689,1.287c0.168,0.228,0.319,0.429,0.457,0.566    c0.195,0.195,0.512,0.195,0.707,0c0.195-0.195,0.195-0.512,0-0.707C11.771,22.037,11.654,21.875,11.521,21.694z M7.003,17.348    c-0.085-0.263-0.366-0.406-0.629-0.324c-0.263,0.084-0.408,0.366-0.324,0.629c0.428,1.338-0.413,3.962-1.678,4.372    c-0.263,0.085-0.406,0.367-0.321,0.63c0.068,0.211,0.265,0.346,0.476,0.346c0.051,0,0.104-0.008,0.154-0.024    C6.607,22.351,7.534,19.009,7.003,17.348z"></path></g></g></svg>